<?xml version="1.0" standalone="no"?>
<!DOCTYPE svg PUBLIC "-//W3C//DTD SVG 20010904//EN"
 "http://www.w3.org/TR/2001/REC-SVG-20010904/DTD/svg10.dtd">
<svg version="1.0" xmlns="http://www.w3.org/2000/svg"
 width="1000.000000pt" height="1000.000000pt" viewBox="0 0 1000.000000 1000.000000"
 preserveAspectRatio="xMidYMid meet">
<metadata>
Created by potrace 1.11, written by Peter Selinger 2001-2013
</metadata>
<g transform="translate(0.000000,1000.000000) scale(0.100000,-0.100000)"
fill="#000000" stroke="none">
<path d="M4897 9854 c-1 -1 -72 -5 -158 -8 -86 -4 -167 -8 -180 -11 -13 -2
-51 -6 -84 -9 -33 -4 -76 -9 -95 -11 -19 -3 -53 -7 -75 -10 -22 -3 -76 -12
-120 -20 -44 -8 -96 -17 -115 -20 -449 -76 -1093 -318 -1497 -562 -39 -23 -74
-43 -76 -43 -5 0 -233 -151 -329 -218 -60 -41 -216 -163 -279 -217 -19 -16
-59 -50 -88 -75 -65 -55 -337 -323 -406 -401 -259 -289 -486 -610 -664 -939
-259 -477 -451 -1042 -525 -1548 -26 -175 -33 -233 -41 -332 -4 -41 -8 -97
-11 -125 -6 -57 -6 -540 0 -600 2 -22 7 -81 10 -132 4 -50 9 -100 11 -111 2
-12 6 -48 10 -81 3 -33 8 -68 10 -79 4 -23 13 -76 21 -129 3 -21 7 -45 9 -53
2 -8 7 -31 10 -50 3 -19 12 -63 20 -96 8 -34 17 -73 20 -85 33 -149 59 -242
114 -409 47 -140 103 -291 140 -375 86 -195 159 -341 251 -505 82 -146 264
-419 377 -565 41 -53 131 -163 143 -175 8 -8 37 -42 65 -75 89 -107 340 -353
495 -486 222 -190 557 -422 790 -547 297 -160 546 -269 835 -364 132 -44 333
-101 405 -114 13 -3 60 -13 105 -23 78 -18 111 -25 189 -37 21 -3 47 -7 56 -9
59 -11 141 -21 325 -40 223 -23 736 -23 877 0 13 2 54 6 91 10 37 3 78 8 89
10 12 3 44 7 72 10 54 6 78 10 281 51 340 67 718 189 1030 332 123 56 360 178
434 224 36 22 75 46 86 52 128 71 462 314 644 469 85 73 391 372 446 437 117
138 147 173 195 235 30 39 57 72 61 75 15 12 266 383 294 435 6 11 24 42 41
70 53 91 62 109 142 270 44 88 96 201 117 250 20 50 43 104 50 120 47 104 163
463 190 588 2 10 7 27 10 37 3 10 8 27 10 37 73 355 89 454 110 698 4 44 9
103 11 130 5 69 5 517 0 585 -8 103 -17 215 -22 255 -3 22 -7 63 -10 90 -3 28
-7 57 -9 65 -3 8 -7 33 -10 55 -3 22 -10 63 -15 90 -5 28 -12 64 -15 80 -38
230 -180 710 -269 910 -8 17 -28 64 -46 105 -111 257 -270 546 -432 783 -40
59 -206 284 -229 312 -10 11 -35 41 -56 66 -129 157 -396 432 -511 529 -30 25
-64 54 -76 65 -12 12 -45 39 -72 60 -27 22 -51 42 -54 45 -13 13 -170 130
-215 160 -27 19 -52 36 -55 40 -11 13 -281 181 -390 242 -374 208 -779 368
-1185 468 -88 21 -173 42 -190 45 -16 3 -67 12 -112 20 -45 8 -92 17 -105 19
-13 3 -45 8 -73 11 -27 3 -63 8 -80 10 -85 12 -242 26 -340 31 -115 6 -374 11
-378 8z"/>
</g>
</svg>
